# xmcd CD database file
#
# Track frame offsets:
#	150
#	21279
#	39582
#	61251
#	74283
#	96746
#	114437
#	125336
#	147126
#	166314
#	188645
#	206364
#	219927
#	232823
#	256888
#
# Disc length: 3737 seconds
#
# Revision: 0
# Processed by: cddbd v1.5.2PL0 Copyright (c) Steve Scherf et al.
# Submitted via: CDex 1.70beta2
#
DISCID=cd0e970f
DTITLE=Swiss Ramblers Dixieland Jazzband - Martinique
DYEAR=2007
DGENRE=Jazz
TTITLE0=Doctor Jazz
TTITLE1=Hawaiian Hospitality
TTITLE2=Just a Closer Walk With Thee
TTITLE3=Coffee Grinder
TTITLE4=South
TTITLE5=Chinatown, My Chinatown
TTITLE6=Madame Becassine
TTITLE7=Over the Waves
TTITLE8=Jeep's Blues
TTITLE9=Martinique
TTITLE10=At the Jazz Band Ball
TTITLE11=I`m Going Home
TTITLE12=Hiawatha Rag
TTITLE13=In The Mood
TTITLE14=Schlafe Mein Prinzchen
EXTD=YEAR: 2007
EXTT0=
EXTT1=
EXTT2=
EXTT3=
EXTT4=
EXTT5=
EXTT6=
EXTT7=
EXTT8=
EXTT9=
EXTT10=
EXTT11=
EXTT12=
EXTT13=
EXTT14=
PLAYORDER=
